<?xml version="1.0" encoding="UTF-8"?>
<svg xmlns="http://www.w3.org/2000/svg" version="1.1" viewBox="0 0 525.1 456.2">
  <defs>
    <style>
      .cls-1 {
        fill: #0d212c;
      }

      .cls-2 {
        fill: #673ab7;
      }
    </style>
  </defs>
  <!-- Generator: Adobe Illustrator 28.6.0, SVG Export Plug-In . SVG Version: 1.2.0 Build 709)  -->
  <g>
    <g id="Layer_1">
      <g id="Layer_1-2" data-name="Layer_1">
        <g id="Layer_1-2">
          <g id="Layer_1-2-2" data-name="Layer_1-2">
            <g>
              <path class="cls-2" d="M303.2,84.6c20.8,0,41.7-.2,62.5-.4h1.5c5,.2,5.8.9,5.8,6v176.3c0,.6-.1,1.2-.2,2.4h-199.4c-1.9,0-3.7-.2-5.6-.3,0-1.9-.2-3.7-.2-5.6V87.8c0-1.1.2-2.2.3-3.3h38c.8,0,1.7.2,2.6.4,0,4.7.2,9.4.3,14.2,0,4.1,2.7,8.4,5.8,9.6,3.6,1.3,8.5.3,10.7-2.9,1.3-1.9,2-4.5,2.2-6.9.4-4.7.3-9.4.4-14.1h56.3c0,5.1.4,10.2.2,15.2,0,3,1.1,5.1,3.2,7,3,2.8,6.6,2.5,9.7,1.3,2.9-1.1,5.3-3.6,5.2-7.4,0-3.7,0-7.5.2-11.2,0-1.7.4-3.4.6-5.1h-.1ZM282.8,213.6h-78.6c-.3-1.9-.8-3.4-.8-5v-93.3c-5.5-.4-10.5-.8-15.5-1.1-.7,0-1.5.7-2.1,1v115.5h97.1v-17.1h-.1,0ZM319.3,154.3h34.5v-17h-88.1v17.6h35.6v75.9h18.1v-76.4h-.1Z"/>
              <path class="cls-1" d="M395.3,364.9v-48h27.8v10.4c0,27.8-.3,55.7,0,83.5.3,19-15,41.4-39.5,44.7-3.2.4-6.4.7-9.7.7h-233.7c-25.4,0-46-22.4-45.6-45.5.4-29.7,0-59.4,0-89.1v-4.9h27.6v48.1h273.1ZM240.2,410.8c0,10.2,8.5,18.5,19,18.5s19.1-8.6,19.1-18.2-8.9-19.1-19.2-18.9c-10.5.2-18.9,8.5-18.9,18.6h0ZM348.1,417.4h34c2.6,0,4.4-1.2,5.3-3.4,1-2.4.7-4.9-1.2-6.9-1.9-2.1-4.4-2.2-6.9-2.1-20.9,0-41.9.2-62.8.3-1.2,0-2.5,0-3.7.2-2.2.5-4.3,1.6-4.4,3.9-.1,1.9.2,4.4,1.3,5.7,1.2,1.4,3.6,2.2,5.5,2.3,11,.2,21.9,0,32.9,0h0Z"/>
              <path class="cls-1" d="M95.2,231.4v-48.5H0c3-21.4,20.7-33.8,45.8-31.8-1.1-35.8,15.9-59.4,49.3-72.2,0-10.4.3-21,0-31.6-.6-21,14.7-42.4,38.5-46.4,3.8-.6,7.7-.6,11.6-.6h80.2c2.3,0,4.6,0,7,.4-12.5,5.8-23,14-31.5,24.8h-55.4c-2.9,0-5.7.2-8.5.7-8.4,1.5-14.1,7.7-14.3,16.2-.3,11.2,0,22.5,0,33.7v169c-.3,5.6-2.7,8.2-8.4,8.2-13.4,0-26.7.3-40.1,0-5.6-.1-10.1,1.4-14.2,5.1-4.2,3.7-8.7,7.1-13,10.7-1.7,1.4-4.4,2.5-3.2,5.6,1.1,3,3.9,2.6,6.4,2.6h419.1c1.2,0,2.5,0,3.7-.3,2.9-.7,3.9-3.6,2.2-6.1-.4-.5-.8-1-1.2-1.4-5.9-5-11.7-10.1-17.8-14.9-1.2-1-3.2-1.3-4.9-1.3-14.6-.1-29.2,0-43.8-.1h-4.1c-4.8-.2-7.5-2.7-7.7-7.4s0-9.4,0-14.4c1.1,0,2-.2,3-.2,20.6,0,41.2,0,61.8.1,2.2,0,4.8.7,6.6,1.9,8.6,6.4,17.3,12.7,25.3,19.7,8,7,9.9,16.5,7.3,26.6-2.6,10.4-9.7,16.9-19.9,19.8-3.2.9-6.6,1-10,1h-213.5c-68.8,0-137.6,0-206.4.2-12.2,0-21.6-4.3-27.6-15-6.2-11.2-3.1-25.8,6.9-33.7,7.2-5.6,14.3-11.2,21.5-16.8,3.3-2.6,6.9-4.1,11.3-4,9.7.3,19.5,0,29.2.1h4.3l-.2.3h-.1ZM78,167.9h12.7c3.7,0,6.1-2.3,6.4-5.8s-2.1-7.3-5.4-7.4c-9.1-.2-18.1,0-27.2,0s-.7.2-1.1.3c-3,1-5,4.2-4.5,7.3.5,3.2,3,5.5,6.4,5.5h12.7Z"/>
              <path class="cls-1" d="M310,25.5c-8.5-10.6-19.1-18.5-31.8-24.4.8-.4,1.1-.7,1.5-.7,32.3,0,64.7-.6,97-.2,20.7.2,35.3,10.6,43.5,29.6,1.9,4.3,2.7,9.4,2.8,14.1.4,12.8.2,25.7.2,38.6v5c16.5,1.6,30,8.6,40.6,21,10.5,12.3,15,26.7,14.7,42.7,24.3-1.9,44.9,12.8,44.8,31.8h-100v14.2c2.1.1,4.2.3,6.2.3,13.9,0,27.7,0,41.6-.1,4.4,0,7.4,2.4,7.8,6.3.4,3.8-2,6.5-6.4,7.2-1,.2-2,.2-3,.2h-71.9c-.5,0-1,0-2.1-.1V45.6c0-4.3-.5-8.4-3.1-12.1-4.2-6.1-10.2-8-17.2-8.1h-65.3,0Z"/>
              <path class="cls-1" d="M167.8,84.6c0,1.1-.3,2.2-.3,3.3v175.2c0,1.9.1,3.7.2,5.6h-23.6V90.1c0-4.9,1.3-6.2,6.2-6.2h13.9c1.2,0,2.4.3,3.6.5v.2h0Z"/>
              <path class="cls-1" d="M227.8,84.6c-.1,4.7,0,9.5-.4,14.1-.2,2.4-.9,4.9-2.2,6.9-2.2,3.2-7.1,4.3-10.7,2.9-3.1-1.2-5.7-5.4-5.8-9.6-.1-4.7-.2-9.4-.3-14.2.1-3.5.4-7,.3-10.4-.6-24,18.5-44.7,42-47.4,29.7-3.4,50.4,19.8,51.8,40.8.4,5.6.5,11.2.7,16.7-.2,1.7-.5,3.4-.6,5.1-.1,3.7-.2,7.5-.2,11.2s-2.3,6.3-5.2,7.4c-3.1,1.2-6.7,1.4-9.7-1.3-2.1-2-3.3-4-3.2-7,.2-5.1-.1-10.2-.2-15.2,0-3.6.3-7.2.3-10.8-.1-13.7-10.1-25.4-24.2-27.7-11.2-1.9-25.1,3.9-30.6,17.6-2.7,6.8-2.1,13.9-1.8,21h0Z"/>
              <path class="cls-1" d="M200.3,331.2h-48.7c-2.7,0-5-.9-6.2-3.3-1.4-2.6-1.4-5.2.3-7.8,1.7-2.5,4.2-2.9,6.9-2.9h94.8c1.1,0,2.2.1,3.3.3,4.2.9,6.5,3.9,6.1,7.7-.4,3.5-3.3,5.9-7.4,6h-49.1Z"/>
              <path class="cls-1" d="M324.8,348.5h-42.3c-3.9,0-6.6-3.1-7.1-6-.8-4.5,2.1-8.1,6.7-8.4h84.7c1.6,0,3.3.2,4.6.9,2.9,1.4,4.3,4.8,3.6,7.9-.7,2.9-3.5,5.4-6.8,5.4-9.6.1-19.2.1-28.8.2h-14.6Z"/>
              <path class="cls-1" d="M50,319.9h16.8c4.4,0,7.8,3,7.6,6.9-.2,3.7-2.9,6.9-7.3,6.8-11.4-.1-22.7.2-34.1.2s-8.1-2.8-7.9-7.3c.2-3.9,3.1-6.5,7.6-6.5h17.3Z"/>
              <path class="cls-1" d="M469.8,319.9h16.8c2.9,0,5.9,2.1,6.8,4.4,1,2.6.2,6.2-2.2,7.8-1.3.9-3,1.5-4.5,1.5-11.3.2-22.7.3-34,.2-4.7,0-7.4-2.9-7.3-7.2,0-4,2.9-6.6,7.4-6.6,5.6-.1,11.2,0,16.8,0h.2Z"/>
              <path class="cls-1" d="M57.7,197.4h13.1c5.3,0,8.1,2.9,7.7,7.8-.2,2.4-1.5,3.9-3.6,4.8-1.6.6-3.3,1.1-5,1.2-8.1.1-16.2.1-24.3,0-5.3,0-8.3-2.6-8.4-7,0-3.9,2-6.4,6-6.6,4.9-.2,9.7,0,14.6,0v-.2h-.1Z"/>
              <path class="cls-1" d="M511.4,197.7h7.5c3.3.1,5.7,2.3,6.1,5.4.4,3.5-1.5,7.1-4.7,7.4-5.9.5-11.9.7-17.8.3-3.7-.2-5.6-3.7-5.2-7.7.4-3.2,2.9-5.4,6.4-5.5,1.4,0,2.7.1,4.1.1h3.7-.1Z"/>
              <path class="cls-1" d="M8.2,197c4.9,0,8.2,2.8,8.3,7.2,0,4-3.4,7.1-8,7.1s-8.5-3-8.5-7.5,3.3-6.7,8.2-6.8h0Z"/>
            </g>
          </g>
        </g>
      </g>
    </g>
  </g>
</svg>